<svg id="svg1" width="467" height="443.81" version="1.1" viewBox="0 0 123.56 117.43" xmlns="http://www.w3.org/2000/svg">
 <style>
	@keyframes m {
		0%{ transform: matrix(0.09299214,0.02491717,-0.02491717,0.09299214,34.403774,38.549238);}
		100%{ transform: matrix(0.09299214,0.02491717,-0.02491717,0.09299214,96.156959,-19.311284);}
	}
    @keyframes m2 {
		0%{ transform: matrix(0.09299214,0.02491717,-0.02491717,0.09299214,157.96419,38.549238);}
		100%{ transform: matrix(0.09299214,0.02491717,-0.02491717,0.09299214,219.71737,-19.311284);}
	}
    @keyframes m3 {
		0%{ transform: matrix(0.09299214,0.02491717,-0.02491717,0.09299214,-27.403457,98.114768);}
		100%{ transform: matrix(0.09299214,0.02491717,-0.02491717,0.09299214,34.403774,38.549238);}
	}
    @keyframes m4 {
		0%{ transform: matrix(0.09299214,0.02491717,-0.02491717,0.09299214,96.156959,98.114768);}
		100%{ transform: matrix(0.09299214,0.02491717,-0.02491717,0.09299214,157.96419,38.549238);}
	}
    @keyframes m5 {
		0%{ transform: matrix(0.09299214,0.02491717,-0.02491717,0.09299214,34.403774,155.97529);}
		100%{ transform: matrix(0.09299214,0.02491717,-0.02491717,0.09299214,96.156959,98.114768);}
	}
    @keyframes m6 {
		0%{ transform: matrix(0.09299214,0.02491717,-0.02491717,0.09299214,157.96419,155.97529);}
		100%{ transform: matrix(0.09299214,0.02491717,-0.02491717,0.09299214,219.71737,98.114768);}
	}
    @keyframes m7 {
		0%{ transform: matrix(0.09299214,0.02491717,-0.02491717,0.09299214,-27.403457,215.54082);}
		100%{ transform: matrix(0.09299214,0.02491717,-0.02491717,0.09299214,34.403774,155.97529);}
	}
    @keyframes m8 {
		0%{ transform: matrix(0.09299214,0.02491717,-0.02491717,0.09299214,96.156959,215.54082);}
		100%{ transform: matrix(0.09299214,0.02491717,-0.02491717,0.09299214,157.96419,155.97529);}
	}
 </style>
 <g id="layer1" transform="translate(-50.561 -65.856)" stroke-width="5.9606">
  <path fill="#3af" id="path1" style="fill-opacity: 0.12;animation: m 5s linear infinite;" transform="matrix(.092992 .024917 -.024917 .092992 34.404 38.549)" d="m233.92 0.0012118c-128.97 7.1e-7 -233.5 109.58-233.92 224.65 1.1314e-5 75.866 45.519 134.87 113.38 166.48l1e-5 26.974c0 14.33 11.38 25.71 25.71 25.71h188.82c14.33 0 25.71-11.38 25.71-25.71v-26.974c67.858-31.611 113.38-90.617 113.38-166.48 0.84295-115.48-103.68-225.07-233.08-224.65zm17.702 199.78 29.925-29.925c6.3221-6.3221 16.438-6.3221 22.76 1e-5 6.3221 6.3221 6.3221 16.438 1e-5 22.76l-29.925 29.925c-3.3718 3.3718-7.1651 4.6362-11.38 4.6362-4.2147 1e-5 -8.4295-1.6859-11.38-4.6362-6.3221-6.3221-6.3221-16.438 0-22.76zm-86.402-29.925c6.3221-6.3221 16.438-6.3221 22.76 0l29.925 29.925c6.3221 6.3221 6.3221 16.438 0 22.76-3.3718 3.3718-7.1651 4.6362-11.38 4.6362-4.2148-1e-5 -8.4295-1.6859-11.38-4.6362l-29.925-29.925c-6.3221-6.3221-6.3222-16.438-1e-5 -22.76zm-34.14 173.23c-37.933 0-67.858-31.611-67.858-70.386-2e-6 -38.776 30.346-70.808 67.858-70.386 37.511 0.42149 67.858 31.611 67.858 70.386-1e-5 38.776-30.768 70.386-67.858 70.386zm67.858 12.223 36.668-58.585 34.14 58.585zm143.72-12.223c-37.933 2e-5 -67.858-31.611-67.858-70.386-1e-5 -38.776 30.346-70.808 67.858-70.386 37.933 0 67.858 31.611 67.858 70.386 0 38.776-30.768 70.386-67.858 70.386z"/>
  <path fill="#3af" id="path2" style="fill-opacity: 0.12;animation: m2 5s linear infinite;" transform="matrix(.092992 .024917 -.024917 .092992 157.96 38.549)" d="m233.92 0.0012118c-128.97 7.1e-7 -233.5 109.58-233.92 224.65 1.1314e-5 75.866 45.519 134.87 113.38 166.48l1e-5 26.974c0 14.33 11.38 25.71 25.71 25.71h188.82c14.33 0 25.71-11.38 25.71-25.71v-26.974c67.858-31.611 113.38-90.617 113.38-166.48 0.84295-115.48-103.68-225.07-233.08-224.65zm17.702 199.78 29.925-29.925c6.3221-6.3221 16.438-6.3221 22.76 1e-5 6.3221 6.3221 6.3221 16.438 1e-5 22.76l-29.925 29.925c-3.3718 3.3718-7.1651 4.6362-11.38 4.6362-4.2147 1e-5 -8.4295-1.6859-11.38-4.6362-6.3221-6.3221-6.3221-16.438 0-22.76zm-86.402-29.925c6.3221-6.3221 16.438-6.3221 22.76 0l29.925 29.925c6.3221 6.3221 6.3221 16.438 0 22.76-3.3718 3.3718-7.1651 4.6362-11.38 4.6362-4.2148-1e-5 -8.4295-1.6859-11.38-4.6362l-29.925-29.925c-6.3221-6.3221-6.3222-16.438-1e-5 -22.76zm-34.14 173.23c-37.933 0-67.858-31.611-67.858-70.386-2e-6 -38.776 30.346-70.808 67.858-70.386 37.511 0.42149 67.858 31.611 67.858 70.386-1e-5 38.776-30.768 70.386-67.858 70.386zm67.858 12.223 36.668-58.585 34.14 58.585zm143.72-12.223c-37.933 2e-5 -67.858-31.611-67.858-70.386-1e-5 -38.776 30.346-70.808 67.858-70.386 37.933 0 67.858 31.611 67.858 70.386 0 38.776-30.768 70.386-67.858 70.386z"/>
  <path fill="#3af" id="path3" style="fill-opacity: 0.12;animation: m3 5s linear infinite;" transform="matrix(.092992 .024917 -.024917 .092992 -27.403 98.115)" d="m233.92 0.0012118c-128.97 7.1e-7 -233.5 109.58-233.92 224.65 1.1314e-5 75.866 45.519 134.87 113.38 166.48l1e-5 26.974c0 14.33 11.38 25.71 25.71 25.71h188.82c14.33 0 25.71-11.38 25.71-25.71v-26.974c67.858-31.611 113.38-90.617 113.38-166.48 0.84295-115.48-103.68-225.07-233.08-224.65zm17.702 199.78 29.925-29.925c6.3221-6.3221 16.438-6.3221 22.76 1e-5 6.3221 6.3221 6.3221 16.438 1e-5 22.76l-29.925 29.925c-3.3718 3.3718-7.1651 4.6362-11.38 4.6362-4.2147 1e-5 -8.4295-1.6859-11.38-4.6362-6.3221-6.3221-6.3221-16.438 0-22.76zm-86.402-29.925c6.3221-6.3221 16.438-6.3221 22.76 0l29.925 29.925c6.3221 6.3221 6.3221 16.438 0 22.76-3.3718 3.3718-7.1651 4.6362-11.38 4.6362-4.2148-1e-5 -8.4295-1.6859-11.38-4.6362l-29.925-29.925c-6.3221-6.3221-6.3222-16.438-1e-5 -22.76zm-34.14 173.23c-37.933 0-67.858-31.611-67.858-70.386-2e-6 -38.776 30.346-70.808 67.858-70.386 37.511 0.42149 67.858 31.611 67.858 70.386-1e-5 38.776-30.768 70.386-67.858 70.386zm67.858 12.223 36.668-58.585 34.14 58.585zm143.72-12.223c-37.933 2e-5 -67.858-31.611-67.858-70.386-1e-5 -38.776 30.346-70.808 67.858-70.386 37.933 0 67.858 31.611 67.858 70.386 0 38.776-30.768 70.386-67.858 70.386z"/>
  <path fill="#3af" id="path4" style="fill-opacity: 0.12;animation: m4 5s linear infinite;" transform="matrix(.092992 .024917 -.024917 .092992 96.157 98.115)" d="m233.92 0.0012118c-128.97 7.1e-7 -233.5 109.58-233.92 224.65 1.1314e-5 75.866 45.519 134.87 113.38 166.48l1e-5 26.974c0 14.33 11.38 25.71 25.71 25.71h188.82c14.33 0 25.71-11.38 25.71-25.71v-26.974c67.858-31.611 113.38-90.617 113.38-166.48 0.84295-115.48-103.68-225.07-233.08-224.65zm17.702 199.78 29.925-29.925c6.3221-6.3221 16.438-6.3221 22.76 1e-5 6.3221 6.3221 6.3221 16.438 1e-5 22.76l-29.925 29.925c-3.3718 3.3718-7.1651 4.6362-11.38 4.6362-4.2147 1e-5 -8.4295-1.6859-11.38-4.6362-6.3221-6.3221-6.3221-16.438 0-22.76zm-86.402-29.925c6.3221-6.3221 16.438-6.3221 22.76 0l29.925 29.925c6.3221 6.3221 6.3221 16.438 0 22.76-3.3718 3.3718-7.1651 4.6362-11.38 4.6362-4.2148-1e-5 -8.4295-1.6859-11.38-4.6362l-29.925-29.925c-6.3221-6.3221-6.3222-16.438-1e-5 -22.76zm-34.14 173.23c-37.933 0-67.858-31.611-67.858-70.386-2e-6 -38.776 30.346-70.808 67.858-70.386 37.511 0.42149 67.858 31.611 67.858 70.386-1e-5 38.776-30.768 70.386-67.858 70.386zm67.858 12.223 36.668-58.585 34.14 58.585zm143.72-12.223c-37.933 2e-5 -67.858-31.611-67.858-70.386-1e-5 -38.776 30.346-70.808 67.858-70.386 37.933 0 67.858 31.611 67.858 70.386 0 38.776-30.768 70.386-67.858 70.386z"/>
  <path fill="#3af" id="path5" style="fill-opacity: 0.12;animation: m5 5s linear infinite;" transform="matrix(.092992 .024917 -.024917 .092992 34.404 155.98)" d="m233.92 0.0012118c-128.97 7.1e-7 -233.5 109.58-233.92 224.65 1.1314e-5 75.866 45.519 134.87 113.38 166.48l1e-5 26.974c0 14.33 11.38 25.71 25.71 25.71h188.82c14.33 0 25.71-11.38 25.71-25.71v-26.974c67.858-31.611 113.38-90.617 113.38-166.48 0.84295-115.48-103.68-225.07-233.08-224.65zm17.702 199.78 29.925-29.925c6.3221-6.3221 16.438-6.3221 22.76 1e-5 6.3221 6.3221 6.3221 16.438 1e-5 22.76l-29.925 29.925c-3.3718 3.3718-7.1651 4.6362-11.38 4.6362-4.2147 1e-5 -8.4295-1.6859-11.38-4.6362-6.3221-6.3221-6.3221-16.438 0-22.76zm-86.402-29.925c6.3221-6.3221 16.438-6.3221 22.76 0l29.925 29.925c6.3221 6.3221 6.3221 16.438 0 22.76-3.3718 3.3718-7.1651 4.6362-11.38 4.6362-4.2148-1e-5 -8.4295-1.6859-11.38-4.6362l-29.925-29.925c-6.3221-6.3221-6.3222-16.438-1e-5 -22.76zm-34.14 173.23c-37.933 0-67.858-31.611-67.858-70.386-2e-6 -38.776 30.346-70.808 67.858-70.386 37.511 0.42149 67.858 31.611 67.858 70.386-1e-5 38.776-30.768 70.386-67.858 70.386zm67.858 12.223 36.668-58.585 34.14 58.585zm143.72-12.223c-37.933 2e-5 -67.858-31.611-67.858-70.386-1e-5 -38.776 30.346-70.808 67.858-70.386 37.933 0 67.858 31.611 67.858 70.386 0 38.776-30.768 70.386-67.858 70.386z"/>
  <path fill="#3af" id="path6" style="fill-opacity: 0.12;animation: m6 5s linear infinite;" transform="matrix(.092992 .024917 -.024917 .092992 157.96 155.98)" d="m233.92 0.0012118c-128.97 7.1e-7 -233.5 109.58-233.92 224.65 1.1314e-5 75.866 45.519 134.87 113.38 166.48l1e-5 26.974c0 14.33 11.38 25.71 25.71 25.71h188.82c14.33 0 25.71-11.38 25.71-25.71v-26.974c67.858-31.611 113.38-90.617 113.38-166.48 0.84295-115.48-103.68-225.07-233.08-224.65zm17.702 199.78 29.925-29.925c6.3221-6.3221 16.438-6.3221 22.76 1e-5 6.3221 6.3221 6.3221 16.438 1e-5 22.76l-29.925 29.925c-3.3718 3.3718-7.1651 4.6362-11.38 4.6362-4.2147 1e-5 -8.4295-1.6859-11.38-4.6362-6.3221-6.3221-6.3221-16.438 0-22.76zm-86.402-29.925c6.3221-6.3221 16.438-6.3221 22.76 0l29.925 29.925c6.3221 6.3221 6.3221 16.438 0 22.76-3.3718 3.3718-7.1651 4.6362-11.38 4.6362-4.2148-1e-5 -8.4295-1.6859-11.38-4.6362l-29.925-29.925c-6.3221-6.3221-6.3222-16.438-1e-5 -22.76zm-34.14 173.23c-37.933 0-67.858-31.611-67.858-70.386-2e-6 -38.776 30.346-70.808 67.858-70.386 37.511 0.42149 67.858 31.611 67.858 70.386-1e-5 38.776-30.768 70.386-67.858 70.386zm67.858 12.223 36.668-58.585 34.14 58.585zm143.72-12.223c-37.933 2e-5 -67.858-31.611-67.858-70.386-1e-5 -38.776 30.346-70.808 67.858-70.386 37.933 0 67.858 31.611 67.858 70.386 0 38.776-30.768 70.386-67.858 70.386z"/>
  <path fill="#3af" id="path7" style="fill-opacity: 0.12;animation: m7 5s linear infinite;" transform="matrix(.092992 .024917 -.024917 .092992 -27.403 215.54)" d="m233.92 0.0012118c-128.97 7.1e-7 -233.5 109.58-233.92 224.65 1.1314e-5 75.866 45.519 134.87 113.38 166.48l1e-5 26.974c0 14.33 11.38 25.71 25.71 25.71h188.82c14.33 0 25.71-11.38 25.71-25.71v-26.974c67.858-31.611 113.38-90.617 113.38-166.48 0.84295-115.48-103.68-225.07-233.08-224.65zm17.702 199.78 29.925-29.925c6.3221-6.3221 16.438-6.3221 22.76 1e-5 6.3221 6.3221 6.3221 16.438 1e-5 22.76l-29.925 29.925c-3.3718 3.3718-7.1651 4.6362-11.38 4.6362-4.2147 1e-5 -8.4295-1.6859-11.38-4.6362-6.3221-6.3221-6.3221-16.438 0-22.76zm-86.402-29.925c6.3221-6.3221 16.438-6.3221 22.76 0l29.925 29.925c6.3221 6.3221 6.3221 16.438 0 22.76-3.3718 3.3718-7.1651 4.6362-11.38 4.6362-4.2148-1e-5 -8.4295-1.6859-11.38-4.6362l-29.925-29.925c-6.3221-6.3221-6.3222-16.438-1e-5 -22.76zm-34.14 173.23c-37.933 0-67.858-31.611-67.858-70.386-2e-6 -38.776 30.346-70.808 67.858-70.386 37.511 0.42149 67.858 31.611 67.858 70.386-1e-5 38.776-30.768 70.386-67.858 70.386zm67.858 12.223 36.668-58.585 34.14 58.585zm143.72-12.223c-37.933 2e-5 -67.858-31.611-67.858-70.386-1e-5 -38.776 30.346-70.808 67.858-70.386 37.933 0 67.858 31.611 67.858 70.386 0 38.776-30.768 70.386-67.858 70.386z"/>
  <path fill="#3af" id="path8" style="fill-opacity: 0.12;animation: m8 5s linear infinite;" transform="matrix(.092992 .024917 -.024917 .092992 96.157 215.54)" d="m233.92 0.0012118c-128.97 7.1e-7 -233.5 109.58-233.92 224.65 1.1314e-5 75.866 45.519 134.87 113.38 166.48l1e-5 26.974c0 14.33 11.38 25.71 25.71 25.71h188.82c14.33 0 25.71-11.38 25.71-25.71v-26.974c67.858-31.611 113.38-90.617 113.38-166.48 0.84295-115.48-103.68-225.07-233.08-224.65zm17.702 199.78 29.925-29.925c6.3221-6.3221 16.438-6.3221 22.76 1e-5 6.3221 6.3221 6.3221 16.438 1e-5 22.76l-29.925 29.925c-3.3718 3.3718-7.1651 4.6362-11.38 4.6362-4.2147 1e-5 -8.4295-1.6859-11.38-4.6362-6.3221-6.3221-6.3221-16.438 0-22.76zm-86.402-29.925c6.3221-6.3221 16.438-6.3221 22.76 0l29.925 29.925c6.3221 6.3221 6.3221 16.438 0 22.76-3.3718 3.3718-7.1651 4.6362-11.38 4.6362-4.2148-1e-5 -8.4295-1.6859-11.38-4.6362l-29.925-29.925c-6.3221-6.3221-6.3222-16.438-1e-5 -22.76zm-34.14 173.23c-37.933 0-67.858-31.611-67.858-70.386-2e-6 -38.776 30.346-70.808 67.858-70.386 37.511 0.42149 67.858 31.611 67.858 70.386-1e-5 38.776-30.768 70.386-67.858 70.386zm67.858 12.223 36.668-58.585 34.14 58.585zm143.72-12.223c-37.933 2e-5 -67.858-31.611-67.858-70.386-1e-5 -38.776 30.346-70.808 67.858-70.386 37.933 0 67.858 31.611 67.858 70.386 0 38.776-30.768 70.386-67.858 70.386z"/>
 </g>
</svg>
